HIERARCHY
ROOT Hips
{
	OFFSET 0.000000 0.000000 0.000000
	CHANNELS 6 Xposition Yposition Zposition Zrotation Yrotation Xrotation 
	JOINT LeftUpLeg_virtual
	{
		OFFSET 0.000000 0.000000 0.000000
		CHANNELS 3 Zrotation Yrotation Xrotation
		JOINT LeftUpLeg
		{
			OFFSET 8.479694 -4.795517 -0.379053
			CHANNELS 3 Zrotation Yrotation Xrotation
			JOINT LeftLeg
			{
				OFFSET 0.485052 -32.551468 0.112863
				CHANNELS 3 Zrotation Yrotation Xrotation
				JOINT LeftFoot
				{
					OFFSET 0.438033 -32.635670 -3.012641
					CHANNELS 3 Zrotation Yrotation Xrotation
					JOINT LeftToeBase
					{
						OFFSET 0.970169 -13.225353 11.864223
						CHANNELS 3 Zrotation Yrotation Xrotation
						End Site
						{
							OFFSET 0.000000 0.000000 0.000000
						}
					}
				}
			}
		}
	}
	JOINT RightUpLeg_virtual
	{
		OFFSET 0.000000 0.000000 0.000000
		CHANNELS 3 Zrotation Yrotation Xrotation
		JOINT RightUpLeg
		{
			OFFSET -8.479694 -4.795517 -0.379053
			CHANNELS 3 Zrotation Yrotation Xrotation
			JOINT RightLeg
			{
				OFFSET -0.484100 -32.551483 0.112903
				CHANNELS 3 Zrotation Yrotation Xrotation
				JOINT RightFoot
				{
					OFFSET -0.438985 -32.635651 -3.012681
					CHANNELS 3 Zrotation Yrotation Xrotation
					JOINT RightToeBase
					{
						OFFSET -0.970169 -13.225354 11.864223
						CHANNELS 3 Zrotation Yrotation Xrotation
						End Site
						{
							OFFSET 0.000000 0.000000 0.000000
						}
					}
				}
			}
		}
	}
	JOINT Spine_virtual
	{
		OFFSET 0.000000 0.000000 0.000000
		CHANNELS 3 Zrotation Yrotation Xrotation
		JOINT Spine
		{
			OFFSET 0.000000 7.722015 1.166203
			CHANNELS 3 Zrotation Yrotation Xrotation
			JOINT Spine1
			{
				OFFSET 0.000000 12.024086 0.248766
				CHANNELS 3 Zrotation Yrotation Xrotation
				JOINT Spine2
				{
					OFFSET -0.000000 11.503036 -0.491240
					CHANNELS 3 Zrotation Yrotation Xrotation
					JOINT Neck_virtual
					{
						OFFSET 0.000000 0.000000 0.000000
						CHANNELS 3 Zrotation Yrotation Xrotation
						JOINT Neck
						{
							OFFSET 0.000000 18.430687 -3.123054
							CHANNELS 3 Zrotation Yrotation Xrotation
							JOINT Head
							{
								OFFSET -0.000000 9.051071 1.034021
								CHANNELS 3 Zrotation Yrotation Xrotation
								End Site
								{
									OFFSET 0.000000 0.000000 0.000000
								}
							}
						}
					}
					JOINT LeftShoulder_virtual
					{
						OFFSET 0.000000 0.000000 0.000000
						CHANNELS 3 Zrotation Yrotation Xrotation
						JOINT LeftShoulder
						{
							OFFSET 6.197824 13.665230 -4.064723
							CHANNELS 3 Zrotation Yrotation Xrotation
							JOINT LeftArm
							{
								OFFSET 7.778132 -0.187073 -1.709282
								CHANNELS 3 Zrotation Yrotation Xrotation
								JOINT LeftForeArm
								{
									OFFSET 21.954697 0.000000 -2.041093
									CHANNELS 3 Zrotation Yrotation Xrotation
									JOINT LeftHand
									{
										OFFSET 22.992908 0.000000 -0.870901
										CHANNELS 3 Zrotation Yrotation Xrotation
										End Site
										{
											OFFSET 0.000000 0.000000 0.000000
										}
									}
								}
							}
						}
					}
					JOINT RightShoulder_virtual
					{
						OFFSET 0.000000 0.000000 0.000000
						CHANNELS 3 Zrotation Yrotation Xrotation
						JOINT RightShoulder
						{
							OFFSET -6.197824 13.665230 -4.064723
							CHANNELS 3 Zrotation Yrotation Xrotation
							JOINT RightArm
							{
								OFFSET -7.778132 -0.187073 -1.709282
								CHANNELS 3 Zrotation Yrotation Xrotation
								JOINT RightForeArm
								{
									OFFSET -21.954697 0.000000 -2.041093
									CHANNELS 3 Zrotation Yrotation Xrotation
									JOINT RightHand
									{
										OFFSET -22.992908 0.000000 -0.870901
										CHANNELS 3 Zrotation Yrotation Xrotation
										End Site
										{
											OFFSET 0.000000 0.000000 0.000000
										}
									}
								}
							}
						}
					}
				}
			}
		}
	}
}
MOTION
Frames: 10
Frame Time: 0.033333
-7.785402 64.324455 -9.190818 179.731428 14.844991 179.977875 1.187194 5.268432 8.451783 4.059500 8.349829 -62.245249 11.769939 1.194214 81.418806 -14.391357 -11.182902 -21.623884 0.000000 0.000000 0.000000 3.257317 4.503916 9.575641 7.301925 -2.228216 -58.887371 -0.038942 0.224251 68.899192 -0.532684 3.081428 -12.410024 0.000000 0.000000 0.000000 4.138973 6.809545 5.443763 0.763830 0.078441 8.300971 0.162287 -3.717508 8.406688 0.042288 -0.069494 0.008730 0.739621 -3.033131 8.000133 -3.370168 -1.648604 -4.095619 0.000000 0.000000 0.000000 2.516970 -2.461360 3.391171 4.906305 -4.219767 -0.504911 -18.969879 -48.544890 -25.409741 -174.421366 -82.145292 -175.311353 0.000000 0.000000 0.000000 -2.055838 -0.774648 2.858548 17.484994 10.770956 2.178252 49.595434 2.354948 12.931152 178.585555 73.659793 174.238686 0.000000 0.000000 0.000000 
-7.779192 64.293526 -9.140059 179.748231 14.623821 -179.996207 1.267069 5.064746 8.314130 4.001371 8.469110 -62.187506 11.810904 1.238801 81.502578 -14.478862 -11.251766 -21.519315 0.000000 0.000000 0.000000 3.288395 4.242764 9.331889 7.283387 -2.172225 -58.712409 -0.036225 0.263714 68.932585 -0.565281 3.024090 -12.465519 0.000000 0.000000 0.000000 4.251025 6.550034 5.227608 0.480714 0.232287 8.304616 -0.001010 -3.745421 8.561673 0.028780 -0.099849 0.030124 0.555429 -3.048150 8.129044 -3.911784 -1.438116 -4.072144 0.000000 0.000000 0.000000 2.398114 -2.444559 3.515842 6.555822 -4.395278 0.008500 -13.820898 -49.596182 -22.867243 -172.219395 -80.365706 -175.150489 0.000000 0.000000 0.000000 -2.182930 -0.714203 2.973082 18.129649 10.788220 2.329259 48.401483 2.607047 12.707915 177.664791 73.665803 172.920405 0.000000 0.000000 0.000000 
-7.781487 64.252205 -9.076788 179.756987 14.427730 -179.934804 1.325105 4.997836 8.208251 3.944320 8.646772 -62.269790 11.817960 1.345689 81.515842 -14.624350 -11.375651 -21.399787 0.000000 0.000000 0.000000 3.336249 4.161906 9.347501 7.246240 -2.074219 -58.776913 -0.056781 0.321879 68.916650 -0.605785 2.884960 -12.577560 0.000000 0.000000 0.000000 4.359520 6.370777 4.997819 0.254366 0.249193 8.270358 -0.156368 -3.700453 8.691091 0.039349 0.029209 0.014219 0.363295 -3.134288 8.299040 -4.358661 -1.205050 -4.051585 0.000000 0.000000 0.000000 2.251673 -2.612818 3.683777 7.806077 -4.260897 0.559033 -9.856796 -50.344908 -19.966540 -170.705702 -79.484120 -174.682634 0.000000 0.000000 0.000000 -2.344446 -0.889299 3.156535 18.655043 10.790415 2.626009 47.217702 2.958119 12.590375 176.759517 73.576191 171.619909 0.000000 0.000000 0.000000 
-7.785991 64.215027 -9.016147 179.801738 14.204353 179.977957 1.397071 5.130641 8.187531 3.971536 8.766434 -62.288791 11.820214 1.440947 81.505016 -14.816468 -11.578328 -21.263417 0.000000 0.000000 0.000000 3.418335 4.216965 9.312598 7.260223 -1.943369 -58.638158 -0.092330 0.323820 68.924853 -0.627152 2.713229 -12.786013 0.000000 0.000000 0.000000 4.524289 6.456963 5.025876 0.149987 0.229647 8.240138 -0.311533 -3.773642 8.821004 -0.006005 -0.045177 -0.004501 0.185608 -3.244448 8.397098 -4.772088 -1.109428 -3.958072 0.000000 0.000000 0.000000 2.117428 -2.647971 3.784513 8.495753 -3.956986 1.041546 -6.751371 -50.610827 -18.063099 -170.389574 -79.277910 -173.473022 0.000000 0.000000 0.000000 -2.528767 -0.818011 3.200037 19.075648 10.622840 2.703380 46.396772 3.142674 12.555643 176.074586 73.388805 170.545042 0.000000 0.000000 0.000000 
-7.774523 64.178001 -8.972025 179.827843 14.131257 179.891337 1.415373 5.356622 8.230916 3.998652 8.846026 -62.339806 11.843099 1.551866 81.539618 -15.016535 -11.844305 -21.123586 0.000000 0.000000 0.000000 3.425321 4.328060 9.315590 7.232945 -1.791158 -58.526300 -0.140757 0.376591 68.924293 -0.658522 2.484401 -13.107262 0.000000 0.000000 0.000000 4.650882 6.628862 5.181313 0.143135 0.265174 8.176355 -0.417627 -3.756300 8.915099 0.006098 -0.015454 0.019253 0.013320 -3.157189 8.376363 -4.966114 -1.009309 -3.883524 0.000000 0.000000 0.000000 1.924954 -2.627340 3.833025 8.656665 -3.465327 1.446579 -4.306293 -50.320049 -17.700384 -171.865905 -79.494304 -170.935360 0.000000 0.000000 0.000000 -2.665761 -0.948786 3.230382 19.379106 10.407991 2.950496 45.808071 3.297323 12.358340 175.591815 73.383300 169.723712 0.000000 0.000000 0.000000 
-7.774768 64.160866 -8.952991 179.863128 14.087142 179.991686 1.450976 5.388656 8.191790 3.962492 8.915438 -62.434308 11.855457 1.613295 81.546004 -15.065355 -11.941808 -21.090067 0.000000 0.000000 0.000000 3.410936 4.348332 9.240203 7.214813 -1.678857 -58.505051 -0.165985 0.406570 68.827202 -0.595454 2.336266 -13.327284 0.000000 0.000000 0.000000 4.764525 6.646402 5.256407 0.147175 0.201968 8.002011 -0.514370 -3.752705 8.909054 0.063814 -0.036869 -0.005081 -0.184078 -3.312853 8.455420 -5.183401 -1.131488 -3.796590 0.000000 0.000000 0.000000 1.737488 -2.606971 3.860419 8.288098 -2.816852 1.843764 -2.815846 -49.792113 -18.200029 -173.460550 -80.006172 -168.597346 0.000000 0.000000 0.000000 -2.881911 -0.781698 3.283201 19.526427 10.210741 3.160444 45.611242 3.214083 12.171669 175.618015 73.402732 169.470299 0.000000 0.000000 0.000000 
-7.796534 64.165192 -8.991945 179.807763 14.179089 -179.999991 1.466185 5.288556 8.321908 3.922956 8.891681 -62.502474 11.941331 1.652675 81.546667 -14.933691 -11.926362 -21.123326 0.000000 0.000000 0.000000 3.426808 4.190585 9.281600 7.170607 -1.607105 -58.439529 -0.135076 0.447996 68.763162 -0.421114 2.355316 -13.535634 0.000000 0.000000 0.000000 4.816995 6.507963 5.329752 0.158270 0.247623 7.838183 -0.625402 -3.658961 8.877024 0.008728 0.036424 -0.008611 -0.199903 -3.019034 8.453926 -5.233831 -1.448031 -3.707622 0.000000 0.000000 0.000000 1.730149 -2.653663 3.859017 7.772556 -2.457330 2.136452 -2.069862 -49.242454 -19.004248 -175.794371 -80.477605 -165.706072 0.000000 0.000000 0.000000 -2.903480 -0.773609 3.236848 19.555282 9.821619 3.445104 45.723048 3.093391 11.975254 175.777978 73.532621 169.429427 0.000000 0.000000 0.000000 
-7.809811 64.189766 -9.050831 179.819907 14.245592 -179.996153 1.495349 5.122112 8.467896 3.918470 8.826884 -62.549814 12.033854 1.606274 81.553019 -14.718274 -11.884463 -21.202755 0.000000 0.000000 0.000000 3.484041 4.011510 9.421270 7.175824 -1.629599 -58.431059 -0.088999 0.443157 68.645054 -0.233794 2.420816 -13.600646 0.000000 0.000000 0.000000 4.855653 6.361442 5.356560 0.226571 0.287979 7.685047 -0.660646 -3.629099 8.818606 0.011112 -0.005812 0.006557 -0.259530 -3.000557 8.400721 -5.320130 -1.473383 -3.695027 0.000000 0.000000 0.000000 1.639800 -2.527214 3.888749 7.262672 -2.154857 2.407948 -2.101982 -49.100580 -19.346787 -176.590593 -80.915673 -164.447391 0.000000 0.000000 0.000000 -2.977238 -0.670933 3.163616 19.475506 9.679326 3.700030 45.974802 3.015833 11.815371 176.319981 73.772409 169.881298 0.000000 0.000000 0.000000 
-7.802873 64.225258 -9.096083 179.804347 14.286525 179.999090 1.474469 5.035644 8.657393 3.884825 8.796210 -62.639446 12.112080 1.553330 81.511655 -14.528557 -11.917008 -21.301948 0.000000 0.000000 0.000000 3.519837 3.951147 9.579888 7.187515 -1.684279 -58.517598 -0.054956 0.471859 68.472107 -0.140044 2.439150 -13.601091 0.000000 0.000000 0.000000 4.834487 6.501847 5.391991 0.299621 0.223759 7.469649 -0.635025 -3.645170 8.765002 0.032468 -0.050315 0.004652 -0.270637 -3.009880 8.374859 -5.418551 -1.653385 -3.700624 0.000000 0.000000 0.000000 1.588639 -2.506648 3.841673 6.980594 -2.199868 2.681687 -2.794694 -49.102097 -18.640452 -177.673861 -81.241036 -162.901064 0.000000 0.000000 0.000000 -3.008239 -0.591948 3.170259 19.258608 9.651246 3.928365 46.264713 3.044489 11.792575 176.513316 74.027066 170.116926 0.000000 0.000000 0.000000 
-7.793459 64.257607 -9.140049 179.804607 14.185009 -179.972862 1.372586 5.094585 8.613134 3.906742 8.710837 -62.601354 12.146542 1.455133 81.408191 -14.384860 -12.037268 -21.374017 0.000000 0.000000 0.000000 3.514023 3.980200 9.777196 7.232585 -1.757515 -58.615837 -0.035106 0.509780 68.365733 -0.146685 2.414969 -13.579529 0.000000 0.000000 0.000000 4.686941 6.385850 5.447546 0.369339 0.236130 7.248419 -0.615383 -3.609248 8.689259 0.008875 -0.075789 0.012812 -0.202756 -3.036898 8.354874 -5.531200 -1.754215 -3.808776 0.000000 0.000000 0.000000 1.653596 -2.341094 3.824806 7.102876 -2.439264 2.863620 -3.672077 -49.395798 -17.793657 -177.996287 -81.443469 -162.150221 0.000000 0.000000 0.000000 -2.947457 -0.533313 3.213568 19.151948 9.770919 4.244861 46.342055 3.422374 11.856991 177.304881 74.187951 171.080529 0.000000 0.000000 0.000000 
